<svg width="24" height="20" viewBox="0 0 24 20" fill="none" xmlns="http://www.w3.org/2000/svg">
<g id="Group">
<path id="Vector" d="M21 8H18C16.8954 8 16 8.89545 16 10C16 11.1046 15.1045 12 14 12H9.99998C8.89542 12 7.99997 11.1046 7.99997 10C7.99997 8.89545 7.10456 8 6 8H3C1.34316 8 0 9.34316 0 11V15C0.00332812 17.76 2.23997 19.9967 5.00002 20H19C21.76 19.9967 23.9967 17.7601 24 15V11C24 9.34316 22.6568 8 21 8Z" fill="#45ADFF"/>
<path id="Vector_2" d="M2.99998 5.99997H21C21.5523 5.99997 22 5.55227 22 4.99998C22 4.4477 21.5523 4 21 4H2.99998C2.4477 4 2 4.4477 2 4.99998C2 5.55222 2.4477 5.99997 2.99998 5.99997Z" fill="#45ADFF"/>
<path id="Vector_3" d="M2.99998 1.99997H21C21.5523 1.99997 22 1.55227 22 0.999984C22 0.447703 21.5523 0 21 0H2.99998C2.4477 0 2 0.447703 2 0.999984C2 1.55227 2.4477 1.99997 2.99998 1.99997Z" fill="#45ADFF"/>
</g>
</svg>
