<svg width="48" height="48" viewBox="0 0 48 48" fill="none" xmlns="http://www.w3.org/2000/svg">
<path fill-rule="evenodd" clip-rule="evenodd" d="M24 48C37.2548 48 48 37.2548 48 24C48 10.7452 37.2548 0 24 0C10.7452 0 0 10.7452 0 24C0 37.2548 10.7452 48 24 48ZM35.7996 12.2148C35.8711 12.2958 35.9206 12.3952 35.9431 12.5026C35.9876 12.6925 36.0062 12.8879 35.9982 13.0832C35.9972 13.1835 35.9896 13.2799 35.9807 13.3934C35.9746 13.4704 35.968 13.5553 35.9623 13.6547C35.8118 16.1616 31.3423 34.8661 31.3423 34.8661C31.3423 34.8661 31.0798 35.9608 30.1173 35.999C29.8815 36.0071 29.6465 35.9657 29.4264 35.8772C29.2063 35.7887 29.0056 35.655 28.8363 35.484C27.8274 34.5849 25.4877 32.8587 23.3133 31.2981C22.6579 31.8686 21.3507 33.0425 19.9883 34.4612C18.0668 36.4631 18.3135 34.4612 18.3135 34.4612L18.9015 28.0449C18.8983 28.0045 18.9046 27.9638 18.9199 27.9264C18.9351 27.889 18.9588 27.856 18.989 27.8302C18.9939 27.8252 19.0679 27.7563 19.2003 27.6331C20.7527 26.1889 30.3305 17.2784 30.6143 16.2672C30.6336 16.1762 30.5461 16.1389 30.4279 16.1762C29.6792 16.462 16.801 24.9181 15.2307 25.9492L15.2029 25.9675C15.0991 25.9998 14.9894 26.0067 14.8826 25.9875L8.55988 23.8445C8.55988 23.8445 7.80563 23.526 8.04801 22.8035C8.09788 22.6534 8.19851 22.5269 8.50126 22.3085C9.90214 21.293 34.4346 12.1232 34.4346 12.1232C34.7882 11.9941 35.1685 11.9659 35.5362 12.0413C35.6372 12.0739 35.7281 12.1337 35.7996 12.2148Z" fill="white"/>
</svg>
