<svg width="24" height="24" viewBox="0 0 24 24" fill="none" xmlns="http://www.w3.org/2000/svg">
<g id="Icon / 32px / Social Telegram">
<path id="Subtract" fill-rule="evenodd" clip-rule="evenodd" d="M12 24C18.6274 24 24 18.6274 24 12C24 5.37258 18.6274 0 12 0C5.37258 0 0 5.37258 0 12C0 18.6274 5.37258 24 12 24ZM17.8998 6.10739C17.9355 6.14792 17.9603 6.19758 17.9715 6.25132C17.9938 6.34625 18.0031 6.44397 17.9991 6.5416C17.9986 6.59174 17.9948 6.63995 17.9903 6.69671C17.9873 6.73522 17.984 6.77767 17.9812 6.82733C17.9059 8.08081 15.6712 17.433 15.6712 17.433C15.6712 17.433 15.5399 17.9804 15.0587 17.9995C14.9407 18.0036 14.8232 17.9828 14.7132 17.9386C14.6031 17.8943 14.5028 17.8275 14.4182 17.742C13.9137 17.2925 12.7438 16.4293 11.6566 15.649C11.329 15.9343 10.6753 16.5213 9.99414 17.2306C9.03339 18.2315 9.15677 17.2306 9.15677 17.2306L9.45077 14.0225C9.44917 14.0022 9.45231 13.9819 9.45993 13.9632C9.46755 13.9445 9.47942 13.928 9.49452 13.9151C9.49696 13.9126 9.53397 13.8782 9.60018 13.8166C10.3764 13.0945 15.1653 8.63918 15.3072 8.13359C15.3168 8.08809 15.273 8.06944 15.214 8.08809C14.8396 8.23097 8.40157 12.4584 7.61555 12.9745L7.60145 12.9837C7.54954 12.9999 7.49472 13.0033 7.44132 12.9937L4.27994 11.9223C4.27994 11.9223 3.90282 11.763 4.024 11.4018C4.04894 11.3267 4.09925 11.2634 4.25063 11.1542C4.95107 10.6465 17.2173 6.06159 17.2173 6.06159C17.3941 5.99707 17.5843 5.98293 17.7681 6.02064C17.8186 6.03693 17.864 6.06687 17.8998 6.10739Z" fill="#43C781"/>
</g>
</svg>
