<svg width="48" height="48" viewBox="0 0 48 48" fill="none" xmlns="http://www.w3.org/2000/svg">
<g id="Icon / 32px / Social Twitter">
<path id="Subtract" fill-rule="evenodd" clip-rule="evenodd" d="M24 48C37.2548 48 48 37.2548 48 24C48 10.7452 37.2548 0 24 0C10.7452 0 0 10.7452 0 24C0 37.2548 10.7452 48 24 48ZM36.4486 16.1C37.757 16 38.8785 15.6 40 15.1C39.1589 16.4 38.1308 17.5 37.0093 18.5V19.3C37.0093 28 30.8411 38 19.5327 38C16.0748 38 12.8037 36.9 10 35.1C10.4673 35.2 11.028 35.2 11.4953 35.2C14.3925 35.2 17.1028 34.2 19.1589 32.4C16.5421 32.3 14.2056 30.4 13.4579 27.8C13.8318 27.9 14.2056 27.9 14.5794 27.9C15.069 27.9 15.4873 27.8238 15.9587 27.7379C16.0273 27.7254 16.097 27.7127 16.1682 27.7C13.3645 27.1 11.215 24.5 11.215 21.3V21.2C12.0561 21.7 12.9907 22 14.0187 22C12.4299 20.8 11.3084 18.8 11.3084 16.5C11.3084 15.3 11.5888 14.2 12.1495 13.2C15.2336 17.2 19.7196 19.8 24.8598 20.1L24.8598 20.1C24.7664 19.6 24.6729 19.1 24.6729 18.6C24.6729 14.9 27.4766 12 30.8411 12C32.5234 12 34.1122 12.8 35.2336 14.1C36.6355 13.8 37.9439 13.3 39.1589 12.5C38.6916 14 37.757 15.3 36.4486 16.1Z" fill="white"/>
</g>
</svg>
