<svg width="24" height="24" viewBox="0 0 24 24" fill="none" xmlns="http://www.w3.org/2000/svg">
<g id="Icon / 32px / Social Twitter">
<path id="Subtract" fill-rule="evenodd" clip-rule="evenodd" d="M12 24C18.6274 24 24 18.6274 24 12C24 5.37258 18.6274 0 12 0C5.37258 0 0 5.37258 0 12C0 18.6274 5.37258 24 12 24ZM18.2243 8.05C18.8785 8 19.4393 7.8 20 7.55C19.5794 8.2 19.0654 8.75 18.5047 9.25V9.65C18.5047 14 15.4206 19 9.76636 19C8.03738 19 6.40187 18.45 5 17.55C5.23364 17.6 5.51402 17.6 5.74766 17.6C7.19626 17.6 8.5514 17.1 9.57944 16.2C8.27103 16.15 7.1028 15.2 6.72897 13.9C6.91589 13.95 7.1028 13.95 7.28972 13.95C7.53448 13.95 7.74364 13.9119 7.97936 13.8689C8.01365 13.8627 8.0485 13.8564 8.08411 13.85C6.68224 13.55 5.60748 12.25 5.60748 10.65V10.6C6.02804 10.85 6.49533 11 7.00935 11C6.21495 10.4 5.65421 9.4 5.65421 8.25C5.65421 7.65 5.79439 7.1 6.07477 6.6C7.61682 8.6 9.85981 9.9 12.4299 10.05L12.4299 10.05C12.3832 9.79999 12.3364 9.55 12.3364 9.3C12.3364 7.45 13.7383 6 15.4206 6C16.2617 6 17.0561 6.4 17.6168 7.05C18.3178 6.9 18.972 6.65 19.5794 6.25C19.3458 7 18.8785 7.65 18.2243 8.05Z" fill="#43C781"/>
</g>
</svg>
