<svg width="24" height="24" viewBox="0 0 24 24" fill="none" xmlns="http://www.w3.org/2000/svg">
<g id="Group 2939">
<path id="Vector" d="M11.5238 5.82369C11.4395 5.28543 11.2961 4.73864 11.0769 4.19184C11.0432 4.11495 11.0095 4.02951 10.9757 3.95262C10.9673 3.92699 10.9504 3.90135 10.942 3.87572C10.9167 3.82446 10.8914 3.7732 10.8661 3.72194C10.8492 3.68776 10.8324 3.66213 10.824 3.62796C10.7987 3.58524 10.7818 3.53397 10.7565 3.49126C10.7396 3.45708 10.7228 3.43145 10.7059 3.39728C10.6722 3.32893 10.6384 3.26912 10.5963 3.20931C10.571 3.1666 10.5457 3.12388 10.5204 3.08116C10.5035 3.05553 10.4867 3.0299 10.4782 3.00427C10.4529 2.96155 10.4276 2.91883 10.3939 2.87611C10.3771 2.85902 10.3686 2.83339 10.3518 2.8163C10.318 2.77359 10.2927 2.72232 10.259 2.67961C9.76995 1.96193 9.19656 1.38951 8.59789 0.996496C8.41238 0.876885 8.22688 0.77436 8.04137 0.688923C7.85587 0.603486 7.67036 0.535137 7.48486 0.483874C7.42583 0.466787 7.36681 0.458243 7.29935 0.441156C7.29935 0.441156 7.29935 0.441156 7.29092 0.441156C7.23189 0.432612 7.1813 0.424069 7.12228 0.415525C7.11384 0.415525 7.11384 0.415525 7.10541 0.415525C7.04639 0.406981 6.9958 0.406981 6.93677 0.398438C6.92834 0.398438 6.92834 0.398438 6.91991 0.398438C6.86931 0.398438 6.81029 0.398438 6.7597 0.398438C6.75127 0.398438 6.74283 0.398438 6.7344 0.398438C6.68381 0.398438 6.63322 0.398438 6.58262 0.406981C6.57419 0.406981 6.55733 0.406981 6.5489 0.406981C6.4983 0.406981 6.45614 0.415525 6.41398 0.424069C6.39712 0.424069 6.38869 0.424069 6.37182 0.432612C6.32966 0.441156 6.2875 0.4497 6.23691 0.458243C6.22005 0.458243 6.20318 0.466787 6.18632 0.466787C6.14416 0.475331 6.11043 0.492418 6.06827 0.500962C6.0514 0.509506 6.02611 0.509506 6.00924 0.518049C5.97552 0.526593 5.94179 0.54368 5.90806 0.552224C5.88276 0.552224 5.85747 0.560768 5.83217 0.577855C5.77315 0.603486 5.72255 0.629117 5.66353 0.654748C5.419 0.782904 5.19133 0.953778 4.9974 1.15883C4.736 1.43222 4.51677 1.77397 4.34813 2.15844C4.36499 2.09863 4.38185 2.04737 4.40715 1.98757L3.76631 3.56815L2.90624 3.97825C2.90624 3.97825 2.90624 3.97825 2.91467 3.97825C2.84722 3.99533 2.77976 4.02097 2.71231 4.03805C2.56053 4.08932 2.41718 4.14912 2.27384 4.21747C2.13049 4.28582 2.00401 4.35417 1.87753 4.43961C1.43906 4.71301 1.09335 5.07184 0.874115 5.51611C0.874115 5.52466 0.865683 5.52466 0.865683 5.5332C0.840387 5.58446 0.823523 5.62718 0.798227 5.67844C0.258574 6.96 0.907844 8.53204 2.33286 9.74524C2.34129 9.75379 2.35816 9.76233 2.36659 9.77087C2.42562 9.82214 2.48464 9.86486 2.54366 9.91612C2.56053 9.93321 2.57739 9.94175 2.60269 9.95884C2.65328 10.0016 2.71231 10.0357 2.7629 10.0784C2.78819 10.0955 2.81349 10.1126 2.83879 10.1297C2.88938 10.1639 2.93997 10.1981 2.99056 10.2408C3.01586 10.2579 3.04959 10.275 3.07488 10.292C3.12548 10.3262 3.17607 10.3604 3.22666 10.3946C3.26039 10.4117 3.28569 10.4287 3.31941 10.4544C3.37001 10.4885 3.4206 10.5142 3.47962 10.5484C3.51335 10.5654 3.54708 10.5825 3.57238 10.5996C3.62297 10.6338 3.68199 10.6594 3.73259 10.6851C3.76631 10.7021 3.80004 10.7192 3.82534 10.7363C3.88436 10.7705 3.94339 10.7961 4.01084 10.8217C4.03614 10.8388 4.06987 10.8474 4.09516 10.8645C4.18792 10.9072 4.28067 10.9499 4.37342 10.9841C5.35997 11.4027 6.35496 11.5394 7.26562 11.5309C7.51015 11.5223 7.75468 11.5138 7.98235 11.4882C8.05824 11.4796 8.13412 11.4711 8.21001 11.4625C9.48325 11.2831 10.4361 10.8388 10.6806 10.5825C10.8577 10.4117 11.1191 9.89903 11.3214 9.18136C11.3467 9.10447 11.3636 9.01903 11.3889 8.93359C11.5154 8.41243 11.6081 7.79728 11.625 7.13087C11.625 7.04543 11.625 6.96 11.625 6.87456C11.6081 6.53281 11.5744 6.18252 11.5238 5.82369Z" fill="#71C638"/>
<path id="Vector_2" d="M5.76246 12.3688C5.23028 12.4541 4.68966 12.5993 4.14903 12.8212C4.07301 12.8553 3.98853 12.8895 3.91251 12.9236C3.88717 12.9322 3.86182 12.9492 3.83648 12.9578C3.7858 12.9834 3.73511 13.009 3.68443 13.0346C3.65064 13.0517 3.6253 13.0687 3.59151 13.0773C3.54927 13.1029 3.49859 13.1199 3.45635 13.1456C3.42256 13.1626 3.39722 13.1797 3.36343 13.1968C3.29586 13.2309 3.23672 13.2651 3.17759 13.3077C3.13536 13.3333 3.09312 13.359 3.05088 13.3846C3.02554 13.4016 3.0002 13.4187 2.97486 13.4272C2.93262 13.4528 2.89039 13.4785 2.84815 13.5126C2.83125 13.5297 2.80591 13.5382 2.78902 13.5553C2.74678 13.5894 2.6961 13.615 2.65386 13.6492C1.94429 14.1443 1.37832 14.7247 0.989747 15.3308C0.871485 15.5186 0.770118 15.7063 0.685645 15.8941C0.601172 16.0819 0.533594 16.2697 0.48291 16.4575C0.466016 16.5173 0.457568 16.577 0.440674 16.6453C0.440674 16.6453 0.440674 16.6453 0.440674 16.6538C0.432227 16.7136 0.423779 16.7648 0.415332 16.8246C0.415332 16.8331 0.415332 16.8331 0.415332 16.8416C0.406885 16.9014 0.406885 16.9526 0.398438 17.0123C0.398438 17.0209 0.398438 17.0209 0.398438 17.0294C0.398438 17.0806 0.398438 17.1404 0.398438 17.1916C0.398438 17.2001 0.398438 17.2087 0.398438 17.2172C0.398438 17.2684 0.398438 17.3196 0.406885 17.3709C0.406885 17.3794 0.406885 17.3965 0.406885 17.405C0.406885 17.4562 0.415332 17.4989 0.423779 17.5416C0.423779 17.5586 0.423779 17.5672 0.432227 17.5843C0.440674 17.6269 0.449121 17.6696 0.457568 17.7208C0.457568 17.7379 0.466016 17.755 0.466016 17.772C0.474463 17.8147 0.491358 17.8489 0.499805 17.8915C0.508252 17.9086 0.508252 17.9342 0.516699 17.9513C0.525147 17.9854 0.542041 18.0196 0.550489 18.0537C0.558936 18.0793 0.567383 18.1049 0.57583 18.1306C0.601172 18.1903 0.626514 18.2415 0.651856 18.3013C0.778565 18.5488 0.947511 18.7793 1.15025 18.9756C1.42056 19.2402 1.75845 19.4622 2.13858 19.6329C2.07945 19.6158 2.02876 19.5987 1.96963 19.5731L3.53238 20.2219L3.9294 21.0925C3.9294 21.0925 3.9294 21.0925 3.9294 21.084C3.9463 21.1523 3.97164 21.2206 3.98853 21.2889C4.03922 21.4425 4.09835 21.5876 4.16593 21.7327C4.2335 21.8778 4.30108 22.0059 4.38555 22.1339C4.66431 22.5778 5.0191 22.9278 5.45836 23.1497C5.46681 23.1497 5.46681 23.1582 5.47525 23.1582C5.52594 23.1838 5.56817 23.2009 5.61886 23.2265C6.8944 23.7643 8.44025 23.1156 9.64821 21.6644C9.65666 21.6559 9.66511 21.6388 9.67355 21.6303C9.72424 21.5705 9.76647 21.5108 9.81716 21.451C9.83405 21.434 9.8425 21.4169 9.85939 21.3913C9.90163 21.3401 9.93542 21.2803 9.97766 21.2291C9.99455 21.2035 10.0114 21.1779 10.0283 21.1523C10.0621 21.1011 10.0959 21.0499 10.1382 20.9986C10.155 20.973 10.1719 20.9389 10.1888 20.9133C10.2226 20.8621 10.2564 20.8108 10.2902 20.7596C10.3071 20.7255 10.324 20.6999 10.3493 20.6657C10.3831 20.6145 10.4085 20.5633 10.4423 20.5036C10.4592 20.4694 10.476 20.4353 10.4929 20.4097C10.5267 20.3584 10.5521 20.2987 10.5774 20.2475C10.5943 20.2133 10.6112 20.1792 10.6281 20.1536C10.6619 20.0938 10.6872 20.0341 10.7126 19.9658C10.7295 19.9402 10.7379 19.906 10.7548 19.8804C10.797 19.7865 10.8393 19.6926 10.8731 19.5987C11.287 18.6 11.4221 17.5928 11.4137 16.6709C11.4052 16.4234 11.3968 16.1758 11.3715 15.9453C11.363 15.8685 11.3546 15.7917 11.3461 15.7149C11.1687 14.4259 10.7295 13.4614 10.476 13.2138C10.3071 13.0346 9.80026 12.77 9.09069 12.5651C9.01467 12.5395 8.93019 12.5224 8.84572 12.4968C8.33044 12.3688 7.72223 12.2749 7.06334 12.2578C6.97887 12.2578 6.8944 12.2578 6.80992 12.2578C6.46359 12.2834 6.11725 12.309 5.76246 12.3688Z" fill="#71C638"/>
<path id="Vector_3" d="M12.4848 18.1805C12.5693 18.7183 12.7129 19.2647 12.9325 19.8111C12.9662 19.8879 13 19.9733 13.0338 20.0501C13.0423 20.0757 13.0592 20.1013 13.0676 20.1269C13.0929 20.1782 13.1183 20.2294 13.1436 20.2806C13.1605 20.3148 13.1774 20.3404 13.1858 20.3745C13.2112 20.4172 13.2281 20.4684 13.2534 20.5111C13.2703 20.5453 13.2872 20.5709 13.3041 20.605C13.3379 20.6733 13.3717 20.7331 13.4139 20.7928C13.4392 20.8355 13.4646 20.8782 13.4899 20.9209C13.5068 20.9465 13.5237 20.9721 13.5321 20.9977C13.5575 21.0404 13.5828 21.0831 13.6166 21.1258C13.6335 21.1429 13.6419 21.1685 13.6588 21.1856C13.6926 21.2282 13.718 21.2795 13.7517 21.3221C14.2416 22.0393 14.816 22.6113 15.4157 23.004C15.6015 23.1235 15.7873 23.2259 15.9731 23.3113C16.1589 23.3967 16.3448 23.465 16.5306 23.5162C16.5897 23.5333 16.6488 23.5418 16.7164 23.5589C16.7164 23.5589 16.7164 23.5589 16.7248 23.5589C16.784 23.5674 16.8346 23.576 16.8938 23.5845C16.9022 23.5845 16.9022 23.5845 16.9107 23.5845C16.9698 23.593 17.0205 23.593 17.0796 23.6016C17.088 23.6016 17.088 23.6016 17.0965 23.6016C17.1472 23.6016 17.2063 23.6016 17.257 23.6016C17.2654 23.6016 17.2739 23.6016 17.2823 23.6016C17.333 23.6016 17.3837 23.6016 17.4343 23.593C17.4428 23.593 17.4597 23.593 17.4681 23.593C17.5188 23.593 17.561 23.5845 17.6033 23.576C17.6202 23.576 17.6286 23.576 17.6455 23.5674C17.6877 23.5589 17.73 23.5503 17.7806 23.5418C17.7975 23.5418 17.8144 23.5333 17.8313 23.5333C17.8735 23.5247 17.9073 23.5077 17.9496 23.4991C17.9665 23.4906 17.9918 23.4906 18.0087 23.482C18.0425 23.4735 18.0763 23.4564 18.11 23.4479C18.1354 23.4394 18.1607 23.4308 18.1861 23.4223C18.2452 23.3967 18.2959 23.3711 18.355 23.3454C18.5999 23.2174 18.828 23.0466 19.0222 22.8418C19.2841 22.5686 19.5037 22.2271 19.6726 21.8429C19.6557 21.9027 19.6388 21.9539 19.6135 22.0137L20.2554 20.4343L21.1169 20.033C21.1169 20.033 21.1169 20.033 21.1085 20.033C21.176 20.016 21.2436 19.9903 21.3112 19.9733C21.4632 19.9221 21.6068 19.8623 21.7504 19.794C21.894 19.7257 22.0207 19.6574 22.1474 19.572C22.5866 19.2903 22.9329 18.9317 23.1525 18.4878C23.1525 18.4793 23.1609 18.4793 23.1609 18.4707C23.1863 18.4195 23.2032 18.3768 23.2285 18.3256C23.7606 17.0365 23.1187 15.4742 21.6828 14.2534C21.6744 14.2448 21.6575 14.2363 21.649 14.2278C21.5899 14.1766 21.5308 14.1339 21.4717 14.0826C21.4548 14.0656 21.4379 14.057 21.4125 14.04C21.3619 13.9973 21.3027 13.9631 21.2521 13.9204C21.2267 13.9034 21.2014 13.8863 21.176 13.8692C21.1254 13.8351 21.0747 13.8009 21.024 13.7582C20.9987 13.7412 20.9649 13.7241 20.9395 13.707C20.8889 13.6729 20.8382 13.6387 20.7875 13.6046C20.7537 13.5875 20.7284 13.5704 20.6946 13.5448C20.6439 13.5107 20.5932 13.485 20.5341 13.4509C20.5003 13.4338 20.4666 13.4167 20.4412 13.3997C20.3905 13.3655 20.3314 13.3399 20.2807 13.3143C20.247 13.2972 20.2132 13.2802 20.1878 13.2631C20.1287 13.2289 20.0696 13.2033 20.002 13.1777C19.9767 13.1606 19.9429 13.1521 19.9175 13.135C19.8246 13.0923 19.7317 13.0496 19.6388 13.0155C18.6506 12.5972 17.6539 12.4606 16.7417 12.4691C16.4968 12.4777 16.2519 12.4862 16.0238 12.5118C15.9478 12.5203 15.8718 12.5289 15.7958 12.5374C14.5204 12.7167 13.5659 13.1606 13.321 13.4167C13.1436 13.5875 12.8818 14.0997 12.6791 14.8168C12.6537 14.8937 12.6368 14.979 12.6115 15.0644C12.4848 15.5852 12.3919 16.1999 12.375 16.8658C12.375 16.9511 12.375 17.0365 12.375 17.1219C12.4003 17.4804 12.4257 17.8305 12.4848 18.1805Z" fill="#71C638"/>
<path id="Vector_4" d="M18.2375 11.6547C18.7697 11.5693 19.3103 11.4242 19.851 11.2023C19.927 11.1681 20.0115 11.134 20.0875 11.0998C20.1128 11.0913 20.1382 11.0742 20.1635 11.0657C20.2142 11.0401 20.2649 11.0145 20.3156 10.9889C20.3494 10.9718 20.3747 10.9547 20.4085 10.9462C20.4507 10.9206 20.5014 10.9035 20.5436 10.8779C20.5774 10.8608 20.6028 10.8437 20.6366 10.8267C20.7041 10.7925 20.7633 10.7584 20.8224 10.7157C20.8646 10.6901 20.9069 10.6645 20.9491 10.6389C20.9745 10.6218 20.9998 10.6047 21.0251 10.5962C21.0674 10.5706 21.1096 10.545 21.1519 10.5108C21.1687 10.4938 21.1941 10.4852 21.211 10.4682C21.2532 10.434 21.3039 10.4084 21.3461 10.3743C22.0557 9.87918 22.6217 9.29873 23.0103 8.69268C23.1285 8.50489 23.2299 8.3171 23.3144 8.1293C23.3988 7.94151 23.4664 7.75372 23.5171 7.56593C23.534 7.50618 23.5424 7.44643 23.5593 7.37814C23.5593 7.37814 23.5593 7.37814 23.5593 7.3696C23.5678 7.30985 23.5762 7.25864 23.5847 7.19888C23.5847 7.19035 23.5847 7.19035 23.5847 7.18181C23.5931 7.12206 23.5931 7.07085 23.6016 7.01109C23.6016 7.00256 23.6016 7.00256 23.6016 6.99402C23.6016 6.94281 23.6016 6.88305 23.6016 6.83184C23.6016 6.8233 23.6016 6.81477 23.6016 6.80623C23.6016 6.75501 23.6016 6.7038 23.5931 6.65258C23.5931 6.64405 23.5931 6.62698 23.5931 6.61844C23.5931 6.56722 23.5847 6.52454 23.5762 6.48186C23.5762 6.46479 23.5762 6.45626 23.5678 6.43918C23.5593 6.3965 23.5509 6.35382 23.5424 6.30261C23.5424 6.28554 23.534 6.26846 23.534 6.25139C23.5255 6.20871 23.5086 6.17457 23.5002 6.13189C23.4917 6.11482 23.4917 6.08921 23.4833 6.07214C23.4749 6.03799 23.458 6.00385 23.4495 5.96971C23.4411 5.9441 23.4326 5.91849 23.4242 5.89288C23.3988 5.83313 23.3735 5.78192 23.3481 5.72216C23.2214 5.47462 23.0525 5.24415 22.8498 5.04782C22.5794 4.78321 22.2416 4.56127 21.8614 4.39055C21.9206 4.40762 21.9712 4.4247 22.0304 4.4503L20.4676 3.80157L20.0706 2.9309C20.0706 2.9309 20.0706 2.9309 20.0706 2.93944C20.0537 2.87115 20.0284 2.80286 20.0115 2.73458C19.9608 2.58093 19.9017 2.43582 19.8341 2.29071C19.7665 2.14559 19.6989 2.01756 19.6144 1.88952C19.3357 1.44565 18.9809 1.09567 18.5416 0.873737C18.5332 0.873737 18.5332 0.865201 18.5247 0.865201C18.4741 0.839593 18.4318 0.822521 18.3811 0.796913C17.1056 0.259147 15.5597 0.90788 14.3518 2.35899C14.3433 2.36753 14.3349 2.3846 14.3264 2.39314C14.2758 2.45289 14.2335 2.51264 14.1828 2.57239C14.1659 2.58947 14.1575 2.60654 14.1406 2.63214C14.0984 2.68336 14.0646 2.74311 14.0223 2.79433C14.0055 2.81994 13.9886 2.84554 13.9717 2.87115C13.9379 2.92237 13.9041 2.97358 13.8618 3.0248C13.845 3.05041 13.8281 3.08455 13.8112 3.11016C13.7774 3.16137 13.7436 3.21259 13.7098 3.26381C13.6929 3.29795 13.676 3.32356 13.6507 3.3577C13.6169 3.40892 13.5915 3.46013 13.5577 3.51988C13.5408 3.55403 13.524 3.58817 13.5071 3.61378C13.4733 3.665 13.4479 3.72475 13.4226 3.77596C13.4057 3.81011 13.3888 3.84425 13.3719 3.86986C13.3381 3.92961 13.3128 3.98936 13.2874 4.05765C13.2705 4.08326 13.2621 4.1174 13.2452 4.14301C13.203 4.23691 13.1607 4.3308 13.1269 4.4247C12.713 5.4234 12.5779 6.43065 12.5863 7.35253C12.5948 7.60007 12.6032 7.84762 12.6285 8.07809C12.637 8.15491 12.6454 8.23174 12.6539 8.30856C12.8313 9.59749 13.2705 10.5621 13.524 10.8096C13.6929 10.9889 14.1997 11.2535 14.9093 11.4583C14.9853 11.4839 15.0698 11.501 15.1543 11.5266C15.6696 11.6547 16.2778 11.7486 16.9367 11.7656C17.0211 11.7656 17.1056 11.7656 17.1901 11.7656C17.5449 11.74 17.8912 11.7059 18.2375 11.6547Z" fill="#71C638"/>
</g>
</svg>
